<svg viewBox="0 0 20 20" xmlns="http://www.w3.org/2000/svg">
<path d="M10 2C5.58172 2 2 5.58172 2 10C2 14.4183 5.58172 18 10 18C12.5264 18 14.7793 16.8289 16.2454 15H15C14.4477 15 14 14.5523 14 14C14 13.4477 14.4477 13 15 13H19C19.5523 13 20 13.4477 20 14V18C20 18.5523 19.5523 19 19 19C18.4477 19 18 18.5523 18 18V16.001C16.1755 18.4293 13.2712 20 10 20C4.47715 20 0 15.5228 0 10C0 4.47715 4.47715 0 10 0V2ZM20.0011 10.0007L18.0011 10.0031C18.0007 9.65827 17.978 9.3087 17.9315 8.9558C17.8851 8.6029 17.8165 8.25937 17.7277 7.9262L19.6602 7.41086C19.7712 7.82739 19.8567 8.25586 19.9144 8.69475C19.9722 9.13363 20.0006 9.56961 20.0011 10.0007ZM18.6625 4.99866L16.9308 5.99935C16.5791 5.39076 16.1501 4.83501 15.6583 4.34388L17.0715 2.92866C17.6856 3.54187 18.2221 4.23664 18.6625 4.99866ZM15.0002 1.33927L13.9989 3.07061C13.3972 2.72265 12.7494 2.45208 12.0705 2.26988L12.5889 0.338235C13.4389 0.566364 14.2489 0.904818 15.0002 1.33927ZM7.5073 6.1298C7.82081 5.95229 8.20556 5.95715 8.5145 6.14251L13.5145 9.14251C13.8157 9.32323 14 9.64874 14 10C14 10.3513 13.8157 10.6768 13.5145 10.8575L8.5145 13.8575C8.20556 14.0429 7.82081 14.0477 7.5073 13.8702C7.19379 13.6927 7 13.3603 7 13V7C7 6.63973 7.19379 6.30731 7.5073 6.1298Z"/>
</svg>
