<svg viewBox="0 0 20 20" xmlns="http://www.w3.org/2000/svg">
<path fill-rule="evenodd" d="M20 10C20 6.68629 17.3137 4 14 4C13.2038 4 12.4439 4.15507 11.7497 4.43749C13.1427 5.87715 14 7.83846 14 10C14 12.1615 13.1427 14.1229 11.7488 15.5634C12.4439 15.8449 13.2038 16 14 16C17.3137 16 20 13.3137 20 10ZM8.2511 4.43658C7.55598 4.15504 6.7961 4 6 4C2.68629 4 0 6.68629 0 10C0 13.3137 2.68629 16 6 16C6.7961 16 7.55598 15.845 8.25033 15.5625C6.85726 14.1229 6 12.1615 6 10C6 7.83846 6.85726 5.87715 8.2511 4.43658ZM13.7216 5.0076C13.8139 5.00254 13.9068 5 14 5C16.7614 5 19 7.23858 19 10C19 12.7614 16.7614 15 14 15L13.7217 14.9924L13.5 14.974L13.6281 14.7785C14.514 13.3673 15 11.7213 15 10L14.9943 9.6782C14.9377 8.07401 14.4587 6.54468 13.6285 5.22189L13.5 5.025L13.7216 5.0076ZM12 9.97221C12 11.7492 11.2275 13.3458 10 14.4444C8.7725 13.3458 8 11.7492 8 9.97221C8 8.19521 8.7725 6.59864 10 5.5C10.1534 5.63733 10.2998 5.78244 10.4384 5.93471C11.4086 7.0006 12 8.41734 12 9.97221ZM10.001 6.97217L9.91635 7.08573C9.32735 7.91697 9 8.91768 9 9.97217C9 10.9834 9.30116 11.9447 9.84443 12.7537L10 12.9732C10.5927 12.184 10.9432 11.2343 10.9937 10.2255L11 9.97217C11 8.96135 10.6991 8.0002 10.1561 7.1908L10.001 6.97217Z" />
</svg>

