<svg viewBox="0 0 16 16" xmlns="http://www.w3.org/2000/svg">
<path d="M2 8C2 4.68629 4.68629 2 8 2V0C3.58172 0 0 3.58172 0 8C0 12.4183 3.58172 16 8 16C10.1794 16 12.1569 15.1271 13.5988 13.7142C13.7376 13.5782 13.8714 13.4372 14 13.2915V14C14 14.5523 14.4477 15 15 15C15.5523 15 16 14.5523 16 14V11C16 10.4477 15.5523 10 15 10H12C11.4477 10 11 10.4477 11 11C11 11.5523 11.4477 12 12 12H12.4721C12.3842 12.0982 12.2932 12.1936 12.199 12.2858C11.1158 13.3472 9.63515 14 8 14C4.68629 14 2 11.3137 2 8ZM16.0004 7.93055L14.0005 7.95039C13.9979 7.69181 13.9786 7.42959 13.9414 7.16478C13.9042 6.89998 13.8504 6.6426 13.7816 6.39332L15.7095 5.86114C15.8013 6.19358 15.8726 6.53575 15.9219 6.88644C15.9712 7.23713 15.997 7.5857 16.0004 7.93055ZM14.8946 3.93842L13.1717 4.95419C12.9041 4.50032 12.5788 4.08634 12.2066 3.72109L13.6074 2.29359C14.1029 2.77985 14.537 3.33191 14.8946 3.93842ZM11.9393 1.03659L10.9532 2.7766C10.4995 2.51948 10.0119 2.32084 9.50183 2.18872L10.0034 0.252625C10.685 0.429186 11.3353 0.694285 11.9393 1.03659ZM7.5547 5.16795C7.24784 4.96338 6.8533 4.94431 6.52814 5.11833C6.20298 5.29235 6 5.63121 6 6V10C6 10.3688 6.20298 10.7077 6.52814 10.8817C6.8533 11.0557 7.24784 11.0366 7.5547 10.8321L10.5547 8.83205C10.8329 8.64659 11 8.33435 11 8C11 7.66565 10.8329 7.35342 10.5547 7.16795L7.5547 5.16795Z"/>
</svg>
